<?xml version="1.0" encoding="utf-8"?>
<!-- Generator: Adobe Illustrator 25.0.0, SVG Export Plug-In . SVG Version: 6.00 Build 0)  -->
<svg version="1.1" id="Icons" xmlns="http://www.w3.org/2000/svg" xmlns:xlink="http://www.w3.org/1999/xlink" x="0px" y="0px"
	 viewBox="0 0 150 150" style="enable-background:new 0 0 150 150;" xml:space="preserve">
<style type="text/css">
	.st0{fill:#FFFFFF;}
	.st1{fill:#2D2D2D;}
	.st2{fill:#8FD8F2;}
	.st3{fill:none;}
</style>
<g>
	<g>
		<path class="st0" d="M122,74l0,1v4l3,0C124.9,77.2,124,75,122,74z"/>
		<path class="st1" d="M122,74c2,1,2.9,3.2,3,5l-3,0v-4L122,74 M122,73c-0.2,0-0.4,0.1-0.5,0.1c-0.3,0.2-0.5,0.5-0.5,0.9l0,1v4
			c0,0.3,0.1,0.5,0.3,0.7c0.2,0.2,0.4,0.3,0.7,0.3c0,0,0,0,0,0l3,0c0.3,0,0.5-0.1,0.7-0.3c0.2-0.2,0.3-0.5,0.3-0.8
			c-0.2-2-1.2-4.6-3.6-5.8C122.3,73,122.2,73,122,73L122,73z"/>
	</g>
	<g>
		<path class="st2" d="M105.5,70H102v-3h4.9c0.9,0,1.4,1,0.9,1.7l0,0C107.3,69.5,106.4,70,105.5,70z"/>
		<path class="st1" d="M106.9,67c0.9,0,1.4,1,0.9,1.7c-0.5,0.8-1.4,1.3-2.4,1.3H102v-3H106.9 M106.9,66H102c-0.6,0-1,0.4-1,1v3
			c0,0.6,0.4,1,1,1h3.5c1.3,0,2.5-0.6,3.2-1.7c0.4-0.6,0.5-1.5,0.1-2.2C108.4,66.4,107.7,66,106.9,66L106.9,66z"/>
	</g>
	<g>
		<circle class="st1" cx="109" cy="86.5" r="8.5"/>
		<path class="st1" d="M109,95.5c-5,0-9-4-9-9s4-9,9-9s9,4,9,9S114,95.5,109,95.5z M109,78.5c-4.4,0-8,3.6-8,8s3.6,8,8,8s8-3.6,8-8
			S113.4,78.5,109,78.5z"/>
	</g>
	<g>
		<path class="st1" d="M33.6,78h3.5c3.2,0,5.9,3.8,5.9,8.5S40.3,95,37.1,95h-3.5c-3.2,0-5.9-3.8-5.9-8.5S30.3,78,33.6,78z"/>
		<path class="st1" d="M37.1,95.5h-3.5c-3.5,0-6.4-4-6.4-9s2.9-9,6.4-9h3.5c3.5,0,6.4,4,6.4,9S40.6,95.5,37.1,95.5z M33.6,78.5
			c-3,0-5.4,3.6-5.4,8s2.4,8,5.4,8h3.5c3,0,5.4-3.6,5.4-8s-2.4-8-5.4-8H33.6z"/>
	</g>
	<ellipse class="st0" cx="33.5" cy="86.5" rx="4" ry="5.5"/>
	<path class="st1" d="M33.5,93C31,93,29,90.3,29,87s2-6,4.5-6c2.5,0,4.5,2.7,4.5,6S36,93,33.5,93z M33.5,82c-1.9,0-3.5,2.2-3.5,5
		s1.6,5,3.5,5s3.5-2.2,3.5-5S35.4,82,33.5,82z"/>
	<g>
		<path class="st1" d="M64.4,78h3.5c3.2,0,5.9,3.8,5.9,8.5S71.2,95,67.9,95h-3.5c-3.2,0-5.9-3.8-5.9-8.5S61.2,78,64.4,78z"/>
		<path class="st1" d="M67.9,95.5h-3.5c-3.5,0-6.4-4-6.4-9s2.9-9,6.4-9h3.5c3.5,0,6.4,4,6.4,9S71.4,95.5,67.9,95.5z M64.4,78.5
			c-3,0-5.4,3.6-5.4,8s2.4,8,5.4,8h3.5c3,0,5.4-3.6,5.4-8s-2.4-8-5.4-8H64.4z"/>
	</g>
	<g>
		<path class="st2" d="M63,52l27.7,0c0.8,0,1.6,0.4,2,1.1L104,71H72L63,52z"/>
		<path class="st1" d="M90.7,52c0.8,0,1.6,0.4,2,1.1L104,71H72l-9-19L90.7,52 M90.7,51L63,51c-0.3,0-0.7,0.2-0.8,0.5
			c-0.2,0.3-0.2,0.7-0.1,1l9,19c0.2,0.3,0.5,0.6,0.9,0.6h32c0.4,0,0.7-0.2,0.9-0.5c0.2-0.3,0.2-0.7,0-1L93.5,52.6
			C92.9,51.6,91.9,51,90.7,51L90.7,51z"/>
	</g>
	<g>
		<polygon class="st0" points="94,55 64,55 72,70 103,70 		"/>
		<path class="st1" d="M94,55l9,15l-31,0l-8-15H94 M94.6,54H94H64h-1.7l0.8,1.5l8,15l0.3,0.5H72l31,0h1.8l-0.9-1.5l-9-15L94.6,54
			L94.6,54z"/>
	</g>
	<g>
		<path class="st2" d="M64.6,53.4L73,71h31c4.6,0.2,13,0,18,3l-1,1v5l4,0v9H43c-1.3,0-3,0-3-2c0,0,0,0,0,0c0-5.7-2.6-8-6-8
			c-4,0-6.2,3.6-7,6l-2.6-3.5c-0.2-0.3-0.4-0.7-0.4-1.1V71c0-2.6,1.8-1.4,6-4c1.1-0.7,8-12,12-13c0,0-0.6-0.6-1-1c-1-1,0-1,0-1h21.5
			C63.4,52,64.3,52.5,64.6,53.4z"/>
		<path class="st1" d="M62.5,52c0.9,0,1.8,0.5,2.1,1.4L73,71h31c4.6,0.2,13,0,18,3l-1,1v5l4,0v9H43c-1.3,0-3,0-3-2c0-5.7-2.6-8-6-8
			c-4,0-6.2,3.6-7,6l-2.6-3.5c-0.2-0.3-0.4-0.7-0.4-1.1V71c0-2.6,1.8-1.4,6-4c1.1-0.7,8-12,12-13c0,0-0.6-0.6-1-1c-1-1,0-1,0-1H62.5
			 M40,87C40,87,40,87,40,87C40,87,40,87,40,87C40,87,40,87,40,87 M62.5,51H41c-0.5,0-1.1,0.2-1.4,0.8c-0.4,0.9,0.4,1.6,0.6,1.9
			c-2.6,1.6-5.6,5.5-8.7,9.8c-0.9,1.2-1.8,2.5-2.1,2.7c-1.5,0.9-2.8,1.3-3.7,1.6C24.3,68.3,23,68.7,23,71v9.4c0,0.6,0.2,1.2,0.6,1.7
			l2.6,3.5c0.2,0.3,0.5,0.4,0.8,0.4c0.1,0,0.1,0,0.2,0c0.4-0.1,0.7-0.3,0.8-0.7c0.8-2.4,2.8-5.3,6-5.3c1.3,0,2.4,0.4,3.3,1.2
			c1.1,1.1,1.7,3.1,1.7,5.8c0,0,0,0,0,0c0,0,0,0,0,0c0,3,2.8,3,4,3l82,0c0.6,0,1-0.4,1-1v-9c0-0.6-0.4-1-1-1l-3,0v-3.6l0.7-0.7
			c0.2-0.2,0.3-0.5,0.3-0.8c0-0.3-0.2-0.6-0.5-0.7c-4.5-2.7-11.3-2.9-16.2-3.1c-0.8,0-1.6,0-2.2-0.1l-30.4,0l-8.1-17.1
			C65,51.8,63.8,51,62.5,51L62.5,51z"/>
	</g>
	<g>
		<path class="st0" d="M86.2,74c0.9-0.2,1.9-0.2,2.9,0c2.2,0.3,8,2,8,2v3h-9l-4-4C84.8,74.4,85.2,74.2,86.2,74z"/>
		<path class="st1" d="M87.6,73.9c0.5,0,1,0,1.5,0.1c2.2,0.3,8,2,8,2v3h-9l-4-4c0.8-0.6,1.2-0.8,2.2-1
			C86.6,73.9,87.1,73.9,87.6,73.9 M87.6,72.9c-0.5,0-1.1,0-1.6,0.1c-1.2,0.2-1.7,0.5-2.6,1.2c-0.2,0.2-0.4,0.4-0.4,0.7
			c0,0.3,0.1,0.6,0.3,0.8l4,4c0.2,0.2,0.4,0.3,0.7,0.3h9c0.6,0,1-0.4,1-1v-3c0-0.4-0.3-0.8-0.7-1c-0.2-0.1-5.9-1.7-8.1-2
			C88.7,72.9,88.1,72.9,87.6,72.9L87.6,72.9z"/>
	</g>
	<g>
		<path class="st1" d="M55.5,73h-4c-0.3,0-0.5-0.2-0.5-0.5s0.2-0.5,0.5-0.5h4c0.3,0,0.5,0.2,0.5,0.5S55.8,73,55.5,73z"/>
	</g>
	<g>
		<path class="st1" d="M40.5,73h-4c-0.3,0-0.5-0.2-0.5-0.5s0.2-0.5,0.5-0.5h4c0.3,0,0.5,0.2,0.5,0.5S40.8,73,40.5,73z"/>
	</g>
	<g>
		<path class="st0" d="M35.3,67.5l1.4,2.1c0.2,0.3,0.5,0.4,0.8,0.4H69c-0.4-1.1-4.3-9.3-6.1-13.1c-0.5-1.2-1.7-1.9-3-1.9H49
			c-6.2,0-8,2.3-11,7c-0.4,0.6-2,3.3-2.7,4.5C35.1,66.8,35.1,67.2,35.3,67.5z"/>
		<path class="st1" d="M59.9,55c1.3,0,2.4,0.7,3,1.9c1.8,3.8,5.7,12,6.1,13.1H37.5c-0.3,0-0.6-0.2-0.8-0.4l-1.4-2.1
			c-0.2-0.3-0.2-0.7,0-1c0.7-1.2,2.3-3.9,2.7-4.5c3-4.7,4.8-7,11-7H59.9 M59.9,54H49c-6.7,0-8.8,2.7-11.8,7.5
			c-0.4,0.5-1.8,3.1-2.7,4.5c-0.4,0.7-0.4,1.5,0.1,2.1l1.4,2.1c0.4,0.5,1,0.9,1.6,0.9H69h1.5l-0.6-1.4c-0.4-1-4-8.7-6.1-13.1
			C63.1,55,61.6,54,59.9,54L59.9,54z"/>
	</g>
	<line class="st3" x1="52.4" y1="54.8" x2="50.4" y2="70.1"/>
	<g>
		<line class="st2" x1="50.5" y1="70.5" x2="52.5" y2="54.5"/>
		<path class="st1" d="M50.5,71C50.5,71,50.5,71,50.5,71c-0.3,0-0.5-0.3-0.5-0.6l2-16c0-0.3,0.3-0.5,0.6-0.4c0.3,0,0.5,0.3,0.4,0.6
			l-2,16C51,70.8,50.7,71,50.5,71z"/>
	</g>
	<g>
		<path class="st0" d="M24,72l1.7,0c0.2,0,0.3,0.1,0.4,0.3l0.8,3.3c0.1,0.2-0.1,0.5-0.4,0.5L24,76V72z"/>
		<path class="st1" d="M25.7,72c0.2,0,0.3,0.1,0.4,0.3l0.8,3.3c0.1,0.2-0.1,0.5-0.4,0.5L24,76v-4L25.7,72 M25.7,71L25.7,71L24,71
			l-1,0v1v4v1l1,0l2.5,0c0.4,0,0.8-0.2,1.1-0.5c0.3-0.3,0.4-0.8,0.2-1.2L27,72C26.9,71.4,26.3,71,25.7,71L25.7,71z"/>
	</g>
	<g>
		<path class="st2" d="M68,67l-6,0c-0.6,0-1,0.5-1,1l0,0c0,1.1,0.9,2,2,2h6L68,67z"/>
		<path class="st1" d="M68,67l1,3h-6c-1.1,0-2-0.9-2-2c0-0.6,0.5-1,1-1L68,67 M68,66C68,66,68,66,68,66l-6,0c-1.1,0-2,0.9-2,2
			c0,1.6,1.3,3,3,3h6c0.3,0,0.6-0.2,0.8-0.4s0.2-0.6,0.1-0.9l-1-3C68.8,66.3,68.4,66,68,66L68,66z"/>
	</g>
	<g>
		<line class="st2" x1="97" y1="75.5" x2="121.5" y2="75.5"/>
		<path class="st1" d="M121.5,76H97c-0.3,0-0.5-0.2-0.5-0.5S96.7,75,97,75h24.5c0.3,0,0.5,0.2,0.5,0.5S121.8,76,121.5,76z"/>
	</g>
	<g>
		<path class="st1" d="M121.5,80h-25c-0.3,0-0.5-0.2-0.5-0.5s0.2-0.5,0.5-0.5h25c0.3,0,0.5,0.2,0.5,0.5S121.8,80,121.5,80z"/>
	</g>
	<g>
		<g>
			<circle class="st1" cx="78" cy="86.5" r="8.5"/>
			<path class="st1" d="M78,95.5c-5,0-9-4-9-9s4-9,9-9s9,4,9,9S83,95.5,78,95.5z M78,78.5c-4.4,0-8,3.6-8,8s3.6,8,8,8s8-3.6,8-8
				S82.4,78.5,78,78.5z"/>
		</g>
		<g>
			<circle class="st0" cx="78" cy="86.5" r="5.5"/>
			<path class="st1" d="M78,92.5c-3.3,0-6-2.7-6-6s2.7-6,6-6s6,2.7,6,6S81.3,92.5,78,92.5z M78,81.5c-2.8,0-5,2.2-5,5s2.2,5,5,5
				s5-2.2,5-5S80.8,81.5,78,81.5z"/>
		</g>
	</g>
	<g>
		<path class="st2" d="M122,89l-1-5H98l-2,5H122z"/>
		<path class="st1" d="M121,84l1,5H96l2-5H121 M121,83H98c-0.4,0-0.8,0.2-0.9,0.6l-2,5c-0.1,0.3-0.1,0.7,0.1,0.9
			c0.2,0.3,0.5,0.4,0.8,0.4h26c0.3,0,0.6-0.1,0.8-0.4s0.3-0.5,0.2-0.8l-1-5C121.9,83.3,121.5,83,121,83L121,83z"/>
	</g>
</g>
</svg>
