<?xml version="1.0" encoding="utf-8"?>
<!-- Generator: Adobe Illustrator 25.0.0, SVG Export Plug-In . SVG Version: 6.00 Build 0)  -->
<svg version="1.1" id="Icons" xmlns="http://www.w3.org/2000/svg" xmlns:xlink="http://www.w3.org/1999/xlink" x="0px" y="0px"
	 viewBox="0 0 150 150" style="enable-background:new 0 0 150 150;" xml:space="preserve">
<style type="text/css">
	.st0{fill:#FFFFFF;}
	.st1{fill:#2D2D2D;}
	.st2{fill:#8FD8F2;}
	.st3{fill:#259ED9;}
	.st4{fill:none;}
</style>
<g>
	<g>
		<g>
			<polyline class="st0" points="108,66 116,62 129,61 129,64 			"/>
			<path class="st1" d="M108,66.5c-0.2,0-0.4-0.1-0.4-0.3c-0.1-0.2,0-0.5,0.2-0.7l8-4c0.1,0,0.1,0,0.2-0.1l13-1c0.1,0,0.3,0,0.4,0.1
				s0.2,0.2,0.2,0.4v3c0,0.3-0.2,0.5-0.5,0.5s-0.5-0.2-0.5-0.5v-2.5l-12.4,1l-7.9,4C108.2,66.5,108.1,66.5,108,66.5z"/>
		</g>
		<g>
			<polygon class="st0" points="94,67 83,56 54,70 			"/>
			<path class="st1" d="M54,70.5c-0.2,0-0.4-0.2-0.5-0.4c-0.1-0.2,0-0.5,0.3-0.6l29-14c0.2-0.1,0.4-0.1,0.6,0.1l11,11
				c0.1,0.1,0.2,0.3,0.1,0.5s-0.2,0.3-0.4,0.3L54,70.5L54,70.5z M82.9,56.6L56.6,69.3l36.3-2.7L82.9,56.6z"/>
		</g>
		<path class="st1" d="M88,67.5c-0.1,0-0.3-0.1-0.4-0.2l-8-9c-0.2-0.2-0.2-0.5,0-0.7s0.5-0.2,0.7,0l8,9c0.2,0.2,0.2,0.5,0,0.7
			C88.2,67.5,88.1,67.5,88,67.5z"/>
		<path class="st1" d="M73,69.5c-0.2,0-0.3-0.1-0.4-0.2l-4-6c-0.2-0.2-0.1-0.5,0.1-0.7s0.5-0.1,0.7,0.1l4,6c0.2,0.2,0.1,0.5-0.1,0.7
			C73.2,69.5,73.1,69.5,73,69.5z"/>
		<g>
			<path class="st2" d="M89,91c-26.7,2.7-59,3-59,3l-6-10c30.1-2.8,77.3-7.2,97-9C114.1,82,100,89.9,89,91z"/>
			<path class="st1" d="M121,75c-6.9,7-21,14.9-32,16c-26.7,2.7-59,3-59,3l-6-10C54.1,81.2,101.3,76.8,121,75 M121,74
				C121,74,120.9,74,121,74c-21,2-70.9,6.6-97.1,9c-0.3,0-0.6,0.2-0.8,0.5s-0.1,0.7,0,1l6,10c0.2,0.3,0.5,0.5,0.9,0.5l0,0
				c0.3,0,32.7-0.4,59.1-3c11.3-1.1,25.7-9.3,32.6-16.3c0.3-0.3,0.4-0.8,0.2-1.1C121.7,74.2,121.4,74,121,74L121,74z M121,76L121,76
				L121,76L121,76z"/>
		</g>
		<g>
			<path class="st3" d="M28,73l101-9l-1,3c0,0-77.2,6.9-108,11L28,73z"/>
			<path class="st1" d="M129,64l-1,3c0,0-77.2,6.9-108,11l8-5L129,64 M129,63C129,63,128.9,63,129,63L27.9,72
				c-0.2,0-0.3,0.1-0.4,0.1l-8,5c-0.4,0.2-0.6,0.7-0.4,1.2c0.1,0.4,0.5,0.7,0.9,0.7h0.1c30.5-4.1,107.2-10.9,108-11
				c0.4,0,0.7-0.3,0.9-0.7l1-3c0.1-0.3,0-0.7-0.2-0.9C129.6,63.1,129.3,63,129,63L129,63z M129,65L129,65L129,65L129,65z"/>
		</g>
		<g>
			<path class="st0" d="M20,78c30.8-4.1,107.9-11,108-11c0,0-3,5-8,9c0,0-65.9,5.2-96,8L20,78z"/>
			<path class="st1" d="M128,67c0,0-3,5-8,9c0,0-65.9,5.2-96,8l-4-6C50.8,73.9,127.9,67,128,67 M128,66C128,66,127.9,66,128,66h-0.2
				c-8,0.7-78.5,7.1-107.9,11c-0.3,0-0.6,0.3-0.8,0.6c-0.1,0.3-0.1,0.7,0.1,1l4,6c0.2,0.3,0.5,0.4,0.8,0.4h0.1
				c29.8-2.8,95.3-7.9,96-8c0.2,0,0.4-0.1,0.5-0.2c5.1-4.1,8.1-9.1,8.2-9.3c0.2-0.3,0.2-0.7,0-1C128.7,66.2,128.3,66,128,66L128,66z
				 M128,68L128,68L128,68L128,68z"/>
		</g>
		<path class="st1" d="M121.9,74.6c-0.1-0.3-0.5-0.6-0.9-0.6l-97.1,9c-0.3,0-0.6,0.2-0.8,0.5c-0.2,0.3-0.1,0.7,0,1l3,5
			c0.2,0.3,0.5,0.5,0.9,0.5h0.1l86-8c0.2,0,0.4-0.1,0.5-0.2l8-6C122,75.5,122.1,75.1,121.9,74.6z"/>
	</g>
	<line class="st4" x1="83.1" y1="56.5" x2="52" y2="71"/>
	<path class="st0" d="M120.6,75.5L120.6,75.5L120.6,75.5z"/>
</g>
</svg>
