<?xml version="1.0" encoding="utf-8"?>
<!-- Generator: Adobe Illustrator 25.0.0, SVG Export Plug-In . SVG Version: 6.00 Build 0)  -->
<svg version="1.1" id="Icons" xmlns="http://www.w3.org/2000/svg" xmlns:xlink="http://www.w3.org/1999/xlink" x="0px" y="0px"
	 viewBox="0 0 150 150" style="enable-background:new 0 0 150 150;" xml:space="preserve">
<style type="text/css">
	.st0{fill:#8FD8F2;}
	.st1{fill:#2D2D2D;}
	.st2{fill:#FFFFFF;}
	.st3{fill:#259ED9;}
</style>
<g>
	<g>
		<polygon class="st0" points="75,42 69,58 49,58 38.5,82.8 38.5,108 122,108 122,83 105,42 		"/>
		<path class="st1" d="M105,42l17,41v25H38.5V82.8L49,58h20l6-16H105 M105,41H75c-0.4,0-0.8,0.3-0.9,0.6L68.3,57H49
			c-0.4,0-0.8,0.2-0.9,0.6L37.6,82.5c-0.1,0.1-0.1,0.3-0.1,0.4V108c0,0.6,0.4,1,1,1H122c0.6,0,1-0.4,1-1V83c0-0.1,0-0.3-0.1-0.4
			l-17-41C105.8,41.2,105.4,41,105,41L105,41z"/>
	</g>
	<g>
		<rect x="56" y="51" class="st0" width="6" height="12"/>
		<path class="st1" d="M62,51v12h-6V51H62 M62,50h-6c-0.6,0-1,0.4-1,1v12c0,0.6,0.4,1,1,1h6c0.6,0,1-0.4,1-1V51
			C63,50.4,62.6,50,62,50L62,50z"/>
	</g>
	<g>
		<path class="st1" d="M38,108c-6,0-7.7-4.5-6.1-10.3C33.3,92.9,34,90.1,31,85c-1.3-2.1-3-4-3-7c0-8,10.8-11.8,16.4-4.5
			C53.2,85,38,108,38,108z"/>
		<path class="st1" d="M36.8,69.6c2.7,0,5.5,1.2,7.6,3.9C53.2,85,38,108,38,108c-6,0-7.7-4.5-6.1-10.3C33.3,92.9,34,90.1,31,85
			c-1.3-2.1-3-4-3-7C28,73,32.2,69.6,36.8,69.6 M36.8,68.6C36.8,68.6,36.8,68.6,36.8,68.6c-6.1,0-9.8,4.8-9.8,9.4
			c0,2.7,1.2,4.5,2.3,6.2c0.3,0.4,0.6,0.9,0.8,1.3c2.9,4.9,2.1,7.4,0.8,11.9c-1.1,3.8-0.8,6.9,0.8,9c0.9,1.2,2.7,2.6,6.3,2.6
			c0.3,0,0.6-0.2,0.8-0.4c0.6-1,15.5-23.8,6.3-35.6C43,70.2,40.1,68.6,36.8,68.6L36.8,68.6z"/>
	</g>
	<g>
		<polygon class="st2" points="58,108 39,108 39,83 48,58 58.5,82.4 		"/>
		<path class="st1" d="M48,58l10.5,24.4L58,108H39V83L48,58 M48,57C48,57,48,57,48,57c-0.4,0-0.8,0.3-0.9,0.7l-9,25
			c0,0.1-0.1,0.2-0.1,0.3v25c0,0.6,0.4,1,1,1h19c0.5,0,1-0.4,1-1l0.5-25.6c0-0.1,0-0.3-0.1-0.4L48.9,57.6C48.8,57.2,48.4,57,48,57
			L48,57z"/>
	</g>
	<path class="st1" d="M89.5,108.5c-0.3,0-0.5-0.2-0.5-0.5V79.5c0-0.3,0.2-0.5,0.5-0.5s0.5,0.2,0.5,0.5V108
		C90,108.3,89.8,108.5,89.5,108.5z"/>
	<g>
		<polygon class="st3" points="59,84 61,75.1 75,42 105,42 87,84 		"/>
		<path class="st1" d="M105,42L87,84H59l2-8.9L75,42H105 M105,41H75c-0.4,0-0.8,0.2-0.9,0.6l-14,33.1c0,0.1,0,0.1-0.1,0.2l-2,8.9
			c-0.1,0.3,0,0.6,0.2,0.8c0.2,0.2,0.5,0.4,0.8,0.4h28c0.4,0,0.8-0.2,0.9-0.6l18-42c0.1-0.3,0.1-0.7-0.1-0.9S105.3,41,105,41L105,41
			z M105,43L105,43L105,43L105,43z"/>
	</g>
	<g>
		<polygon class="st0" points="59,84 48,58 83,58 73,84 		"/>
		<path class="st1" d="M83,58L73,84H59L48,58H83 M83,57H48c-0.3,0-0.6,0.2-0.8,0.4c-0.2,0.3-0.2,0.6-0.1,0.9l11,26
			c0.2,0.4,0.5,0.6,0.9,0.6h14c0.4,0,0.8-0.3,0.9-0.6l10-26c0.1-0.3,0.1-0.7-0.1-0.9C83.6,57.2,83.3,57,83,57L83,57z M83,59L83,59
			L83,59L83,59z"/>
	</g>
	<path class="st1" d="M73.5,108.5c-0.3,0-0.5-0.2-0.5-0.5V84.5c0-0.3,0.2-0.5,0.5-0.5s0.5,0.2,0.5,0.5V108
		C74,108.3,73.8,108.5,73.5,108.5z"/>
	<g>
		<rect x="43" y="87" class="st2" width="11" height="16"/>
		<path class="st1" d="M54,87v16H43V87H54 M54,86H43c-0.6,0-1,0.4-1,1v16c0,0.6,0.4,1,1,1h11c0.6,0,1-0.4,1-1V87
			C55,86.4,54.6,86,54,86L54,86z"/>
	</g>
	<g>
		<rect x="100" y="88" class="st2" width="11" height="20"/>
		<path class="st1" d="M111,88v20h-11V88H111 M111,87h-11c-0.6,0-1,0.4-1,1v20c0,0.6,0.4,1,1,1h11c0.6,0,1-0.4,1-1V88
			C112,87.4,111.6,87,111,87L111,87z"/>
	</g>
	<path class="st1" d="M48.5,104c-0.3,0-0.5-0.2-0.5-0.5v-17c0-0.3,0.2-0.5,0.5-0.5s0.5,0.2,0.5,0.5v17C49,103.8,48.8,104,48.5,104z"
		/>
	<path class="st1" d="M54.5,99h-12c-0.3,0-0.5-0.2-0.5-0.5s0.2-0.5,0.5-0.5h12c0.3,0,0.5,0.2,0.5,0.5S54.8,99,54.5,99z"/>
	<g>
		<path class="st2" d="M105.5,66.5c2.9-0.1,5.4,2.2,5.5,5.1h-11C100.1,68.6,102.6,66.4,105.5,66.5z"/>
		<path class="st1" d="M105.7,66.5c2.8,0,5.2,2.2,5.3,5.1h-11c0.1-2.8,2.5-5.1,5.3-5.1c0.1,0,0.1,0,0.2,0
			C105.6,66.5,105.6,66.5,105.7,66.5 M105.7,65.5c-0.1,0-0.1,0-0.2,0c-0.1,0-0.1,0-0.2,0c-3.4,0-6.1,2.7-6.3,6
			c0,0.3,0.1,0.5,0.3,0.7c0.2,0.2,0.4,0.3,0.7,0.3h11c0.3,0,0.5-0.1,0.7-0.3c0.2-0.2,0.3-0.5,0.3-0.7
			C111.9,68.1,109.1,65.5,105.7,65.5L105.7,65.5z"/>
	</g>
	<g>
		<rect x="100" y="72" class="st2" width="11" height="6"/>
		<path class="st1" d="M111,72v6h-11v-6H111 M111,71h-11c-0.6,0-1,0.4-1,1v6c0,0.6,0.4,1,1,1h11c0.6,0,1-0.4,1-1v-6
			C112,71.4,111.6,71,111,71L111,71z"/>
	</g>
	<g>
		<path class="st3" d="M73.3,98c5.7,0,10.3,4.6,10.3,10H63C63,102.6,67.6,98,73.3,98z"/>
		<path class="st1" d="M73.3,98c5.7,0,10.3,4.6,10.3,10H63C63,102.6,67.6,98,73.3,98 M73.3,97c-6.1,0-11.3,5-11.3,11
			c0,0.6,0.4,1,1,1h20.6c0.6,0,1-0.4,1-1C84.6,102,79.4,97,73.3,97L73.3,97z"/>
	</g>
	<path class="st1" d="M105.5,79c-0.3,0-0.5-0.2-0.5-0.5v-7c0-0.3,0.2-0.5,0.5-0.5s0.5,0.2,0.5,0.5v7C106,78.8,105.8,79,105.5,79z"/>
	<path class="st1" d="M108.5,100.5c-0.3,0-0.5-0.2-0.5-0.5v-4c0-0.3,0.2-0.5,0.5-0.5s0.5,0.2,0.5,0.5v4
		C109,100.3,108.8,100.5,108.5,100.5z"/>
</g>
</svg>
