<svg version="1.1" id="Layer_1" xmlns="http://www.w3.org/2000/svg" x="0" y="0" viewBox="0 0 964 115.1" xml:space="preserve"><style>.st0{fill:#2d95e5}</style><path id="Path_1" class="st0" d="M500.2 7.9C496.6 2.4 490.1.5 484.9.5H433l-53.6 114.2h27.1L426.9 70h14.5s4.1.3 6 3.3c1.6 2.7 1.4 7.4-1.4 13.1-6.6 13.9-11.8 28.4-11.8 28.4h27.3c.8-3.7 1.9-7.4 3.3-10.9 2.2-4.9 8.5-20.8 8.5-20.8 5.2-12.8-1.1-18-5.2-20.5 10.4-1.1 17.8-6 21.9-14.8 3.6-7.1 8.7-18.6 8.7-18.6 5.3-10.9 3.7-17.4 1.5-21.3m-27.4 20l-4.6 9.8-2.7 5.7c-2.2 4.9-5.7 7.4-10.4 7.4h-18.9l14.2-31.2h20.5c1.1 0 2.1.5 2.7 1.4.9 1.7.6 3.9-.8 6.9z"/><path id="Path_2" class="st0" d="M212.4 7.9C208.8 2.4 202.3.5 197.1.5h-51.9L91.6 114.8h27.1L139.1 70h14.5s4.1.3 6 3.3c1.6 2.7 1.4 7.4-1.4 13.1-6.6 13.9-11.8 28.4-11.8 28.4h27.3c.8-3.7 1.9-7.4 3.3-10.9 2.2-4.9 8.5-20.8 8.5-20.8 5.2-12.8-1.1-18-5.2-20.5 10.4-1.1 17.8-6 21.9-14.8 3.6-7.1 8.7-18.6 8.7-18.6 5.3-10.9 3.7-17.4 1.5-21.3m-27.4 20l-4.6 9.8-2.7 5.7c-2.2 4.9-5.7 7.4-10.4 7.4h-18.9l14.8-31.2h20c1.1 0 2.1.5 2.7 1.4.8 1.7.5 3.9-.9 6.9z"/><path id="Path_3" class="st0" d="M277.1 92.7c5.5-11.2 12.8-27.1 20.8-44l9.3-19.7c9.6-20.2-1.4-29-14.8-29h-33.1c-13.7 0-23.5 6.6-29.8 20-3.3 7.1-9 18.9-15.6 32.5l-13.7 29c-13.7 29 6.8 33.6 16.9 33.6h20.8c20.9 0 31-5.8 39.2-22.4m-36.9 1h-11.8c-2.2 0-6.3-.5-3.3-7.4 4.6-9.8 24.1-51.7 27.9-59.9 2.7-5.7 5.5-6.8 9-6.8h14.8c2.7 0 5.5 1.4 3 6.3l-27.3 58.5c-3.8 8-6.2 9.3-12.3 9.3z"/><path id="Path_4" class="st0" d="M386.2 0H358c-14.2 0-25.7 7.4-31.7 20-5.2 10.9-29 61.5-29 61.5-8.7 18.6-3.8 33.6 20.2 33.6h21.6c17.2.3 25.7-2.5 33.3-19.7l20-43.7h-40.7l-9 19.1H357L349 88c-2.5 4.9-3.8 6-9.3 6h-14.2c-4.1 0-5.7-2.2-3.3-7.4 3.3-6.8 28.7-59.9 28.7-59.9 2.7-6 4.6-6.8 9-6.8h14.5c3.6 0 5.5 1.6 3 6.3-.5 1.1-6.3 13.7-6.3 13.7l25.7.3 5.7-12.6C411.3 8.7 403.7.3 386.2 0z"/><path id="Path_5" class="st0" d="M713.4 114.5L767.5.3h-27.9l-53.8 114.2h27.6z"/><path id="Path_6" class="st0" d="M836.1.3l-62.6 100.6L805.2.3h-29l-26.8 114.2h37.7L865.3.3h-29.2z"/><path id="Path_7" class="st0" d="M621.5 74.9l-2.2-42.1c-.3-5.2 1.1-12 10.4-12h18.6L657.9.3h-32c-25.1 0-33.9 15.6-32.8 33.6.6 11.2 2.2 47.3 2.2 47.3.3 8.7-3 12.8-11.2 12.8h-21.3l-9.6 20.8h33.9c22.7-.3 36.1-15 34.4-39.9z"/><path id="Path_8" class="st0" d="M685.5 74.9L683 32.8c-.3-5.2 1.1-12 10.4-12H712L721.6.3h-32c-21 0-34.2 11.5-32.8 33.6.5 11.2 2.2 47.3 2.2 47.3.3 8.7-3 12.8-11.2 12.8H627l-9.6 20.8h33.3c25.2-.3 36.2-18 34.8-39.9z"/><path id="Path_9" class="st0" d="M529.1.5l-53.6 114H543l9.8-20.8h-41l14.5-30.3H561l9-19.1h-34.7l11.2-23.8h36.1L592 .3l-62.9.2z"/><path id="Path_10" class="st0" d="M874.6.5l-53.3 114.2h67.5l9.8-20.8h-41l14.5-30.3h34.7l9-19.1h-34.7l11.2-23.8h36.1L937.7.5h-63.1z"/><path id="Path_11" class="st0" d="M27.6 115.1H0L53.3.5h51.4c11.8 0 22.7 9.3 13.9 29-5.2 11.2-9.6 21-11.8 25.7-7.1 14.5-16.1 19.7-33.3 19.7h-27l-18.9 40.2zm45.1-60.2c4.9 0 7.9-2.2 10.4-6.8.3-.8 4.1-8.7 9.3-19.4 3.3-7.4.5-9.3-3-9.3H71.9L55.5 54.9h17.2z"/><path id="Path_12" class="st0" d="M945.4 10.7c0-5.1 4.2-9.3 9.3-9.3 5.1 0 9.3 4.2 9.3 9.3 0 5.1-4.2 9.3-9.3 9.3-5.1 0-9.3-4.2-9.3-9.3m17.5 0c0-4.5-3.7-8.2-8.2-8.2-4.4-.1-8.1 3.5-8.2 7.9v.3c0 4.5 3.7 8.2 8.2 8.2 4.5-.1 8.2-3.7 8.2-8.2m-3.5 5.2h-1.6l-3-4.9h-2.5v4.9h-1.4V5.5h4.6c.9-.1 1.7.1 2.5.5.7.5 1.1 1.3 1.1 2.2 0 1.9-1.4 2.7-3.3 2.7l3.6 5m-5-5.8c1.4 0 3.8.3 3.8-1.9 0-1.6-1.4-1.9-2.7-1.9h-3v3.6h1.9v.2z"/></svg>