<?xml version="1.0" encoding="utf-8"?>
<!-- Generator: Adobe Illustrator 25.0.0, SVG Export Plug-In . SVG Version: 6.00 Build 0)  -->
<svg version="1.1" id="Icons" xmlns="http://www.w3.org/2000/svg" xmlns:xlink="http://www.w3.org/1999/xlink" x="0px" y="0px"
	 viewBox="0 0 150 150" style="enable-background:new 0 0 150 150;" xml:space="preserve">
<style type="text/css">
	.st0{fill:#2D2D2D;}
	.st1{fill:#259ED9;}
	.st2{fill:#8FD8F2;}
	.st3{fill:#FFFFFF;}
</style>
<g>
	<g>
		<path class="st0" d="M41,108c-6,0-8.7-4.1-7-10c1.4-4.8,2-7.9-1-13c-1.3-2.2-2-3-2-6c0-8.1,9.8-12.8,15.4-5.5
			C55.2,85,41,108,41,108z"/>
		<path class="st0" d="M39.6,69.9c2.4,0,4.8,1.1,6.8,3.6C55.2,85,41,108,41,108c-6,0-8.7-4.1-7-10c1.4-4.8,2-7.9-1-13
			c-1.3-2.2-2-3-2-6C31,73.7,35.2,69.9,39.6,69.9 M39.6,68.9L39.6,68.9c-5.3,0-9.6,4.5-9.6,10.1c0,2.9,0.7,4.1,1.7,5.8
			c0.1,0.2,0.3,0.4,0.4,0.7c2.8,4.8,2.2,7.6,0.9,12.2c-0.9,3.3-0.6,6.2,0.9,8.3c1.5,2,3.9,3,7,3h0.6l0.3-0.5
			c0.1-0.2,3.6-5.9,6.1-13.2c3.4-9.9,3.1-17.4-0.8-22.5C45.2,70.3,42.5,68.9,39.6,68.9L39.6,68.9z"/>
	</g>
	<g>
		<g>
			<polygon class="st1" points="75,59 92,42 103,42 86,59 			"/>
			<path class="st0" d="M103,42L86,59H75l17-17H103 M103,41H92c-0.3,0-0.5,0.1-0.7,0.3l-17,17c-0.3,0.3-0.4,0.7-0.2,1.1
				c0.2,0.4,0.5,0.6,0.9,0.6h11c0.3,0,0.5-0.1,0.7-0.3l17-17c0.3-0.3,0.4-0.7,0.2-1.1S103.4,41,103,41L103,41z M103,43L103,43
				L103,43L103,43z"/>
		</g>
		<g>
			<polygon class="st2" points="119,61 103,42 86,60 86,108 119,108 			"/>
			<path class="st0" d="M103,42l16,19v47H86V60L103,42 M103,41c-0.3,0-0.5,0.1-0.7,0.3l-17,18C85.1,59.5,85,59.7,85,60v48
				c0,0.6,0.4,1,1,1h33c0.6,0,1-0.4,1-1V61c0-0.2-0.1-0.5-0.2-0.6l-16-19C103.6,41.1,103.3,41,103,41C103,41,103,41,103,41L103,41z"
				/>
		</g>
		<g>
			<rect x="74" y="60" class="st3" width="10" height="48"/>
			<path class="st0" d="M84,60v48H74V60H84 M84,59H74c-0.6,0-1,0.4-1,1v48c0,0.6,0.4,1,1,1h10c0.6,0,1-0.4,1-1V60
				C85,59.4,84.6,59,84,59L84,59z"/>
		</g>
		<g>
			<path class="st3" d="M97,69v-7.5c0-3.1,2.5-5.5,5.5-5.5c0.1,0,0.1,0,0.2,0c2.9,0,5.3,2.4,5.3,5.3V69H97z"/>
			<path class="st0" d="M102.7,56c2.9,0,5.3,2.4,5.3,5.3V69H97v-7.5c0-3.1,2.5-5.5,5.5-5.5C102.6,56,102.7,56,102.7,56 M102.7,55
				C102.7,55,102.7,55,102.7,55h-0.2c-1.7,0-3.4,0.7-4.6,1.9c-1.2,1.2-1.9,2.9-1.9,4.6V69c0,0.6,0.4,1,1,1h11c0.6,0,1-0.4,1-1v-7.7
				C109,57.8,106.2,55,102.7,55L102.7,55z"/>
		</g>
	</g>
	<g>
		<g>
			<polygon class="st2" points="85,60 68,42 52,60 52,108 85,108 			"/>
			<path class="st0" d="M68,42l17,18v48H52V60L68,42 M68,41C68,41,68,41,68,41c-0.3,0-0.6,0.1-0.7,0.3l-16,18
				C51.1,59.5,51,59.8,51,60v48c0,0.6,0.4,1,1,1h33c0.6,0,1-0.4,1-1V60c0-0.3-0.1-0.5-0.3-0.7l-17-18C68.5,41.1,68.3,41,68,41L68,41
				z"/>
		</g>
		<g>
			<rect x="41" y="61" class="st3" width="10" height="47"/>
			<path class="st0" d="M51,61v47H41V61H51 M51,60H41c-0.6,0-1,0.4-1,1v47c0,0.6,0.4,1,1,1h10c0.6,0,1-0.4,1-1V61
				C52,60.4,51.6,60,51,60L51,60z"/>
		</g>
		<g>
			<path class="st3" d="M63,69v-7.5c0-3.1,2.5-5.5,5.5-5.5c0.1,0,0.1,0,0.2,0c2.9,0,5.3,2.4,5.3,5.3V69H63z"/>
			<path class="st0" d="M68.7,56c2.9,0,5.3,2.4,5.3,5.3V69H63v-7.5c0-3.1,2.5-5.5,5.5-5.5C68.6,56,68.7,56,68.7,56 M68.7,55
				C68.7,55,68.7,55,68.7,55h-0.2c-1.7,0-3.4,0.7-4.6,1.9c-1.2,1.2-1.9,2.9-1.9,4.6V69c0,0.6,0.4,1,1,1h11c0.6,0,1-0.4,1-1v-7.7
				C75,57.8,72.2,55,68.7,55L68.7,55z"/>
		</g>
		<g>
			<polygon class="st1" points="40,60 57,42 68,42 51,60 			"/>
			<path class="st0" d="M68,42L51,60H40l17-18H68 M68,41H57c-0.3,0-0.5,0.1-0.7,0.3l-17,18c-0.3,0.3-0.3,0.7-0.2,1.1
				c0.2,0.4,0.5,0.6,0.9,0.6h11c0.3,0,0.5-0.1,0.7-0.3l17-18c0.3-0.3,0.3-0.7,0.2-1.1C68.8,41.2,68.4,41,68,41L68,41z M68,43L68,43
				L68,43L68,43z"/>
		</g>
	</g>
	<g>
		<path class="st2" d="M96,108c0-5.5-4.5-10-10-10s-10,4.5-10,10H96z"/>
		<path class="st0" d="M86,98c5.5,0,10,4.5,10,10H76C76,102.5,80.5,98,86,98 M86,97c-6.1,0-11,4.9-11,11c0,0.6,0.4,1,1,1h20
			c0.6,0,1-0.4,1-1C97,101.9,92.1,97,86,97L86,97z"/>
	</g>
	<g>
		<g>
			<g>
				<g>
					<rect x="63" y="77" class="st3" width="11" height="23"/>
					<path class="st0" d="M74,77v23H63V77H74 M74,76H63c-0.6,0-1,0.4-1,1v23c0,0.6,0.4,1,1,1h11c0.6,0,1-0.4,1-1V77
						C75,76.4,74.6,76,74,76L74,76z"/>
				</g>
				<path class="st0" d="M71.5,92c-0.3,0-0.5-0.2-0.5-0.5v-4c0-0.3,0.2-0.5,0.5-0.5s0.5,0.2,0.5,0.5v4C72,91.8,71.8,92,71.5,92z"/>
			</g>
			<g>
				<polygon class="st3" points="74,100 77,100 77,103 80,103 80,106 83,106 83,108 71.3,108 63,100 				"/>
				<path class="st0" d="M77,100v3h3v3h3v2H71.3l-8.3-8h11H77 M77,99h-3H63c-0.4,0-0.8,0.2-0.9,0.6c-0.2,0.4-0.1,0.8,0.2,1.1l8.3,8
					c0.2,0.2,0.4,0.3,0.7,0.3H83c0.6,0,1-0.4,1-1v-2c0-0.6-0.4-1-1-1h-2v-2c0-0.6-0.4-1-1-1h-2v-2C78,99.4,77.6,99,77,99L77,99z"/>
			</g>
		</g>
		<g>
			<polygon class="st0" points="65,100 65,103 68,103 68,106 71,106 71,108 63,108 63,100 			"/>
			<path class="st0" d="M65,100v3h3v3h3v2h-8v-8H65 M65,99h-2c-0.6,0-1,0.4-1,1v8c0,0.6,0.4,1,1,1h8c0.6,0,1-0.4,1-1v-2
				c0-0.6-0.4-1-1-1h-2v-2c0-0.6-0.4-1-1-1h-2v-2C66,99.4,65.6,99,65,99L65,99z"/>
		</g>
	</g>
	<g>
		<g>
			<g>
				<g>
					<rect x="97" y="77" class="st3" width="11" height="23"/>
					<path class="st0" d="M108,77v23H97V77H108 M108,76H97c-0.6,0-1,0.4-1,1v23c0,0.6,0.4,1,1,1h11c0.6,0,1-0.4,1-1V77
						C109,76.4,108.6,76,108,76L108,76z"/>
				</g>
				<path class="st0" d="M105.5,92c-0.3,0-0.5-0.2-0.5-0.5v-4c0-0.3,0.2-0.5,0.5-0.5s0.5,0.2,0.5,0.5v4C106,91.8,105.8,92,105.5,92z
					"/>
			</g>
			<g>
				<polygon class="st3" points="108,100 111,100 111,103 114,103 114,106 117,106 117,108 105.3,108 97,100 				"/>
				<path class="st0" d="M111,100v3h3v3h3v2h-11.7l-8.3-8h11H111 M111,99h-3H97c-0.4,0-0.8,0.2-0.9,0.6c-0.2,0.4-0.1,0.8,0.2,1.1
					l8.3,8c0.2,0.2,0.4,0.3,0.7,0.3H117c0.6,0,1-0.4,1-1v-2c0-0.6-0.4-1-1-1h-2v-2c0-0.6-0.4-1-1-1h-2v-2C112,99.4,111.6,99,111,99
					L111,99z"/>
			</g>
		</g>
		<g>
			<polygon class="st0" points="99,100 99,103 102,103 102,106 105,106 105,108 97,108 97,100 			"/>
			<path class="st0" d="M99,100v3h3v3h3v2h-8v-8H99 M99,99h-2c-0.6,0-1,0.4-1,1v8c0,0.6,0.4,1,1,1h8c0.6,0,1-0.4,1-1v-2
				c0-0.6-0.4-1-1-1h-2v-2c0-0.6-0.4-1-1-1h-2v-2C100,99.4,99.6,99,99,99L99,99z"/>
		</g>
	</g>
</g>
</svg>
